<svg xmlns="http://www.w3.org/2000/svg" xmlns:xlink="http://www.w3.org/1999/xlink" version="1.1" class="marks" width="842" height="247" viewBox="0 0 842 247"><rect width="842" height="247" fill="white"/><g fill="none" stroke-miterlimit="10" transform="translate(42,10)"><g class="mark-group role-frame root" role="graphics-object" aria-roledescription="group mark container"><g transform="translate(0,0)"><path class="background" aria-hidden="true" d="M0.5,0.5h700v200h-700Z" stroke="#ddd"/><g><g class="mark-group role-axis" aria-hidden="true"><g transform="translate(0.5,200.5)"><path class="background" aria-hidden="true" d="M0,0h0v0h0Z" pointer-events="none"/><g><g class="mark-rule role-axis-grid" pointer-events="none"><line transform="translate(0,-200)" x2="0" y2="200" stroke="#ddd" stroke-width="1" opacity="1"/><line transform="translate(35,-200)" x2="0" y2="200" stroke="#ddd" stroke-width="1" opacity="1"/><line transform="translate(70,-200)" x2="0" y2="200" stroke="#ddd" stroke-width="1" opacity="1"/><line transform="translate(105,-200)" x2="0" y2="200" stroke="#ddd" stroke-width="1" opacity="1"/><line transform="translate(140,-200)" x2="0" y2="200" stroke="#ddd" stroke-width="1" opacity="1"/><line transform="translate(175,-200)" x2="0" y2="200" stroke="#ddd" stroke-width="1" opacity="1"/><line transform="translate(210,-200)" x2="0" y2="200" stroke="#ddd" stroke-width="1" opacity="1"/><line transform="translate(245,-200)" x2="0" y2="200" stroke="#ddd" stroke-width="1" opacity="1"/><line transform="translate(280,-200)" x2="0" y2="200" stroke="#ddd" stroke-width="1" opacity="1"/><line transform="translate(315,-200)" x2="0" y2="200" stroke="#ddd" stroke-width="1" opacity="1"/><line transform="translate(350,-200)" x2="0" y2="200" stroke="#ddd" stroke-width="1" opacity="1"/><line transform="translate(385,-200)" x2="0" y2="200" stroke="#ddd" stroke-width="1" opacity="1"/><line transform="translate(420,-200)" x2="0" y2="200" stroke="#ddd" stroke-width="1" opacity="1"/><line transform="translate(455,-200)" x2="0" y2="200" stroke="#ddd" stroke-width="1" opacity="1"/><line transform="translate(490,-200)" x2="0" y2="200" stroke="#ddd" stroke-width="1" opacity="1"/><line transform="translate(525,-200)" x2="0" y2="200" stroke="#ddd" stroke-width="1" opacity="1"/><line transform="translate(560,-200)" x2="0" y2="200" stroke="#ddd" stroke-width="1" opacity="1"/><line transform="translate(595,-200)" x2="0" y2="200" stroke="#ddd" stroke-width="1" opacity="1"/><line transform="translate(630,-200)" x2="0" y2="200" stroke="#ddd" stroke-width="1" opacity="1"/><line transform="translate(665,-200)" x2="0" y2="200" stroke="#ddd" stroke-width="1" opacity="1"/><line transform="translate(700,-200)" x2="0" y2="200" stroke="#ddd" stroke-width="1" opacity="1"/></g></g><path class="foreground" aria-hidden="true" d="" pointer-events="none" display="none"/></g></g><g class="mark-group role-axis" aria-hidden="true"><g transform="translate(0.5,0.5)"><path class="background" aria-hidden="true" d="M0,0h0v0h0Z" pointer-events="none"/><g><g class="mark-rule role-axis-grid" pointer-events="none"><line transform="translate(0,200)" x2="700" y2="0" stroke="#ddd" stroke-width="1" opacity="1"/><line transform="translate(0,160)" x2="700" y2="0" stroke="#ddd" stroke-width="1" opacity="1"/><line transform="translate(0,120)" x2="700" y2="0" stroke="#ddd" stroke-width="1" opacity="1"/><line transform="translate(0,80)" x2="700" y2="0" stroke="#ddd" stroke-width="1" opacity="1"/><line transform="translate(0,40)" x2="700" y2="0" stroke="#ddd" stroke-width="1" opacity="1"/><line transform="translate(0,0)" x2="700" y2="0" stroke="#ddd" stroke-width="1" opacity="1"/></g></g><path class="foreground" aria-hidden="true" d="" pointer-events="none" display="none"/></g></g><g class="mark-group role-axis" role="graphics-symbol" aria-roledescription="axis" aria-label="X-axis titled 't' for a linear scale with values from 0 to 100"><g transform="translate(0.5,200.5)"><path class="background" aria-hidden="true" d="M0,0h0v0h0Z" pointer-events="none"/><g><g class="mark-rule role-axis-tick" pointer-events="none"><line transform="translate(0,0)" x2="0" y2="5" stroke="#888" stroke-width="1" opacity="1"/><line transform="translate(35,0)" x2="0" y2="5" stroke="#888" stroke-width="1" opacity="1"/><line transform="translate(70,0)" x2="0" y2="5" stroke="#888" stroke-width="1" opacity="1"/><line transform="translate(105,0)" x2="0" y2="5" stroke="#888" stroke-width="1" opacity="1"/><line transform="translate(140,0)" x2="0" y2="5" stroke="#888" stroke-width="1" opacity="1"/><line transform="translate(175,0)" x2="0" y2="5" stroke="#888" stroke-width="1" opacity="1"/><line transform="translate(210,0)" x2="0" y2="5" stroke="#888" stroke-width="1" opacity="1"/><line transform="translate(245,0)" x2="0" y2="5" stroke="#888" stroke-width="1" opacity="1"/><line transform="translate(280,0)" x2="0" y2="5" stroke="#888" stroke-width="1" opacity="1"/><line transform="translate(315,0)" x2="0" y2="5" stroke="#888" stroke-width="1" opacity="1"/><line transform="translate(350,0)" x2="0" y2="5" stroke="#888" stroke-width="1" opacity="1"/><line transform="translate(385,0)" x2="0" y2="5" stroke="#888" stroke-width="1" opacity="1"/><line transform="translate(420,0)" x2="0" y2="5" stroke="#888" stroke-width="1" opacity="1"/><line transform="translate(455,0)" x2="0" y2="5" stroke="#888" stroke-width="1" opacity="1"/><line transform="translate(490,0)" x2="0" y2="5" stroke="#888" stroke-width="1" opacity="1"/><line transform="translate(525,0)" x2="0" y2="5" stroke="#888" stroke-width="1" opacity="1"/><line transform="translate(560,0)" x2="0" y2="5" stroke="#888" stroke-width="1" opacity="1"/><line transform="translate(595,0)" x2="0" y2="5" stroke="#888" stroke-width="1" opacity="1"/><line transform="translate(630,0)" x2="0" y2="5" stroke="#888" stroke-width="1" opacity="1"/><line transform="translate(665,0)" x2="0" y2="5" stroke="#888" stroke-width="1" opacity="1"/><line transform="translate(700,0)" x2="0" y2="5" stroke="#888" stroke-width="1" opacity="1"/></g><g class="mark-text role-axis-label" pointer-events="none"><text text-anchor="start" transform="translate(0,15)" font-family="sans-serif" font-size="10px" fill="#000" opacity="1">0</text><text text-anchor="middle" transform="translate(35,15)" font-family="sans-serif" font-size="10px" fill="#000" opacity="1">5</text><text text-anchor="middle" transform="translate(70,15)" font-family="sans-serif" font-size="10px" fill="#000" opacity="1">10</text><text text-anchor="middle" transform="translate(105,15)" font-family="sans-serif" font-size="10px" fill="#000" opacity="1">15</text><text text-anchor="middle" transform="translate(140,15)" font-family="sans-serif" font-size="10px" fill="#000" opacity="1">20</text><text text-anchor="middle" transform="translate(175,15)" font-family="sans-serif" font-size="10px" fill="#000" opacity="1">25</text><text text-anchor="middle" transform="translate(210,15)" font-family="sans-serif" font-size="10px" fill="#000" opacity="1">30</text><text text-anchor="middle" transform="translate(244.99999999999997,15)" font-family="sans-serif" font-size="10px" fill="#000" opacity="1">35</text><text text-anchor="middle" transform="translate(280,15)" font-family="sans-serif" font-size="10px" fill="#000" opacity="1">40</text><text text-anchor="middle" transform="translate(315,15)" font-family="sans-serif" font-size="10px" fill="#000" opacity="1">45</text><text text-anchor="middle" transform="translate(350,15)" font-family="sans-serif" font-size="10px" fill="#000" opacity="1">50</text><text text-anchor="middle" transform="translate(385.00000000000006,15)" font-family="sans-serif" font-size="10px" fill="#000" opacity="1">55</text><text text-anchor="middle" transform="translate(420,15)" font-family="sans-serif" font-size="10px" fill="#000" opacity="1">60</text><text text-anchor="middle" transform="translate(455,15)" font-family="sans-serif" font-size="10px" fill="#000" opacity="1">65</text><text text-anchor="middle" transform="translate(489.99999999999994,15)" font-family="sans-serif" font-size="10px" fill="#000" opacity="1">70</text><text text-anchor="middle" transform="translate(525,15)" font-family="sans-serif" font-size="10px" fill="#000" opacity="1">75</text><text text-anchor="middle" transform="translate(560,15)" font-family="sans-serif" font-size="10px" fill="#000" opacity="1">80</text><text text-anchor="middle" transform="translate(595,15)" font-family="sans-serif" font-size="10px" fill="#000" opacity="1">85</text><text text-anchor="middle" transform="translate(630,15)" font-family="sans-serif" font-size="10px" fill="#000" opacity="1">90</text><text text-anchor="middle" transform="translate(665,15)" font-family="sans-serif" font-size="10px" fill="#000" opacity="1">95</text><text text-anchor="end" transform="translate(700,15)" font-family="sans-serif" font-size="10px" fill="#000" opacity="1">100</text></g><g class="mark-rule role-axis-domain" pointer-events="none"><line transform="translate(0,0)" x2="700" y2="0" stroke="#888" stroke-width="1" opacity="1"/></g><g class="mark-text role-axis-title" pointer-events="none"><text text-anchor="middle" transform="translate(350,30)" font-family="sans-serif" font-size="11px" font-weight="bold" fill="#000" opacity="1">t</text></g></g><path class="foreground" aria-hidden="true" d="" pointer-events="none" display="none"/></g></g><g class="mark-group role-axis" role="graphics-symbol" aria-roledescription="axis" aria-label="Y-axis titled 'x1, y, b_mean' for a linear scale with values from −6 to 4"><g transform="translate(0.5,0.5)"><path class="background" aria-hidden="true" d="M0,0h0v0h0Z" pointer-events="none"/><g><g class="mark-rule role-axis-tick" pointer-events="none"><line transform="translate(0,200)" x2="-5" y2="0" stroke="#888" stroke-width="1" opacity="1"/><line transform="translate(0,160)" x2="-5" y2="0" stroke="#888" stroke-width="1" opacity="1"/><line transform="translate(0,120)" x2="-5" y2="0" stroke="#888" stroke-width="1" opacity="1"/><line transform="translate(0,80)" x2="-5" y2="0" stroke="#888" stroke-width="1" opacity="1"/><line transform="translate(0,40)" x2="-5" y2="0" stroke="#888" stroke-width="1" opacity="1"/><line transform="translate(0,0)" x2="-5" y2="0" stroke="#888" stroke-width="1" opacity="1"/></g><g class="mark-text role-axis-label" pointer-events="none"><text text-anchor="end" transform="translate(-7,203)" font-family="sans-serif" font-size="10px" fill="#000" opacity="1">−6</text><text text-anchor="end" transform="translate(-7,163)" font-family="sans-serif" font-size="10px" fill="#000" opacity="1">−4</text><text text-anchor="end" transform="translate(-7,123)" font-family="sans-serif" font-size="10px" fill="#000" opacity="1">−2</text><text text-anchor="end" transform="translate(-7,83)" font-family="sans-serif" font-size="10px" fill="#000" opacity="1">0</text><text text-anchor="end" transform="translate(-7,42.99999999999999)" font-family="sans-serif" font-size="10px" fill="#000" opacity="1">2</text><text text-anchor="end" transform="translate(-7,3)" font-family="sans-serif" font-size="10px" fill="#000" opacity="1">4</text></g><g class="mark-rule role-axis-domain" pointer-events="none"><line transform="translate(0,200)" x2="0" y2="-200" stroke="#888" stroke-width="1" opacity="1"/></g><g class="mark-text role-axis-title" pointer-events="none"><text text-anchor="middle" transform="translate(-25.7412109375,100) rotate(-90) translate(0,-2)" font-family="sans-serif" font-size="11px" font-weight="bold" fill="#000" opacity="1">x1, y, b_mean</text></g></g><path class="foreground" aria-hidden="true" d="" pointer-events="none" display="none"/></g></g><g class="mark-line role-mark layer_0_marks" role="graphics-object" aria-roledescription="line mark container"><path aria-label="t: 1; x1: 3" role="graphics-symbol" aria-roledescription="line mark" d="M7,20L14,22.376L21,24.159L28,26.231L35,28.1L42,30.215L49,32.419L56,34.745L63,37.208L70,39.913L77,42.771L84,45.991L91,49.377L98,53.103L105,57.259L112,62.051L119,67.541L126,73.925L133,81.387L140,90.145L147,100.296L154,111.35L161,121.535L168,127.952L175,129.289L182,127.761L189,125.609L196,123.171L203,120.549L210,117.896L217,115.034L224,111.959L231,108.578L238,104.748L245,100.551L252,95.837L259,90.375L266,83.861L273,76.296L280,67.315L287,56.921L294,45.948L301,36.502L308,31.224L315,30.874L322,32.723L329,35.028L336,37.515L343,40.086L350,42.899L357,46.103L364,49.549L371,53.443L378,57.62L385,62.279L392,67.648L399,73.877L406,81.207L413,89.795L420,99.771L427,110.686L434,120.95L441,127.871L448,129.83L455,128.524L462,126.347L469,123.839L476,121.168L483,118.5L490,115.514L497,112.186L504,108.59L511,104.738L518,100.458L525,95.613L532,89.947L539,83.335L546,75.448L553,66.316L560,55.988L567,45.154L574,36.118L581,31.414L588,31.327L595,33.339L602,35.719L609,38.262L616,41.062L623,43.92L630,47.021L637,50.344L644,54.064L651,58.231L658,62.94L665,68.325L672,74.615L679,81.955L686,90.572L693,100.427L700,111.025" stroke="#4c78a8" stroke-width="2"/></g><g class="mark-symbol role-mark layer_1_marks" role="graphics-object" aria-roledescription="symbol mark container"><path aria-label="t: 1; y: 3.38239596779" role="graphics-symbol" aria-roledescription="point" transform="translate(7,12.352080644187847)" d="M2.739,0A2.739,2.739,0,1,1,-2.739,0A2.739,2.739,0,1,1,2.739,0" stroke="#f58518" stroke-width="2" opacity="0.7"/><path aria-label="t: 2; y: 2.8707439073" role="graphics-symbol" aria-roledescription="point" transform="translate(14,22.585121853984667)" d="M2.739,0A2.739,2.739,0,1,1,-2.739,0A2.739,2.739,0,1,1,2.739,0" stroke="#f58518" stroke-width="2" opacity="0.7"/><path aria-label="t: 3; y: 3.10317698999" role="graphics-symbol" aria-roledescription="point" transform="translate(21,17.93646020026234)" d="M2.739,0A2.739,2.739,0,1,1,-2.739,0A2.739,2.739,0,1,1,2.739,0" stroke="#f58518" stroke-width="2" opacity="0.7"/><path aria-label="t: 4; y: 0.421366215219" role="graphics-symbol" aria-roledescription="point" transform="translate(28,71.57267569561232)" d="M2.739,0A2.739,2.739,0,1,1,-2.739,0A2.739,2.739,0,1,1,2.739,0" stroke="#f58518" stroke-width="2" opacity="0.7"/><path aria-label="t: 5; y: 3.02641733109" role="graphics-symbol" aria-roledescription="point" transform="translate(35,19.471653378223763)" d="M2.739,0A2.739,2.739,0,1,1,-2.739,0A2.739,2.739,0,1,1,2.739,0" stroke="#f58518" stroke-width="2" opacity="0.7"/><path aria-label="t: 6; y: 3.45251686994" role="graphics-symbol" aria-roledescription="point" transform="translate(42,10.94966260112451)" d="M2.739,0A2.739,2.739,0,1,1,-2.739,0A2.739,2.739,0,1,1,2.739,0" stroke="#f58518" stroke-width="2" opacity="0.7"/><path aria-label="t: 7; y: 1.85671279847" role="graphics-symbol" aria-roledescription="point" transform="translate(49.00000000000001,42.865744030534934)" d="M2.739,0A2.739,2.739,0,1,1,-2.739,0A2.739,2.739,0,1,1,2.739,0" stroke="#f58518" stroke-width="2" opacity="0.7"/><path aria-label="t: 8; y: 2.21228630453" role="graphics-symbol" aria-roledescription="point" transform="translate(56,35.75427390939605)" d="M2.739,0A2.739,2.739,0,1,1,-2.739,0A2.739,2.739,0,1,1,2.739,0" stroke="#f58518" stroke-width="2" opacity="0.7"/><path aria-label="t: 9; y: 0.365783810982" role="graphics-symbol" aria-roledescription="point" transform="translate(63,72.6843237803696)" d="M2.739,0A2.739,2.739,0,1,1,-2.739,0A2.739,2.739,0,1,1,2.739,0" stroke="#f58518" stroke-width="2" opacity="0.7"/><path aria-label="t: 10; y: 1.24674008318" role="graphics-symbol" aria-roledescription="point" transform="translate(70,55.06519833639811)" d="M2.739,0A2.739,2.739,0,1,1,-2.739,0A2.739,2.739,0,1,1,2.739,0" stroke="#f58518" stroke-width="2" opacity="0.7"/><path aria-label="t: 11; y: 2.65739979349" role="graphics-symbol" aria-roledescription="point" transform="translate(77,26.85200413019966)" d="M2.739,0A2.739,2.739,0,1,1,-2.739,0A2.739,2.739,0,1,1,2.739,0" stroke="#f58518" stroke-width="2" opacity="0.7"/><path aria-label="t: 12; y: 2.25129063263" role="graphics-symbol" aria-roledescription="point" transform="translate(84,34.97418734743456)" d="M2.739,0A2.739,2.739,0,1,1,-2.739,0A2.739,2.739,0,1,1,2.739,0" stroke="#f58518" stroke-width="2" opacity="0.7"/><path aria-label="t: 13; y: 2.86809382825" role="graphics-symbol" aria-roledescription="point" transform="translate(91,22.63812343506444)" d="M2.739,0A2.739,2.739,0,1,1,-2.739,0A2.739,2.739,0,1,1,2.739,0" stroke="#f58518" stroke-width="2" opacity="0.7"/><path aria-label="t: 14; y: 0.59936130879" role="graphics-symbol" aria-roledescription="point" transform="translate(98.00000000000001,68.01277382420938)" d="M2.739,0A2.739,2.739,0,1,1,-2.739,0A2.739,2.739,0,1,1,2.739,0" stroke="#f58518" stroke-width="2" opacity="0.7"/><path aria-label="t: 15; y: 1.08386427558" role="graphics-symbol" aria-roledescription="point" transform="translate(105,58.32271448844879)" d="M2.739,0A2.739,2.739,0,1,1,-2.739,0A2.739,2.739,0,1,1,2.739,0" stroke="#f58518" stroke-width="2" opacity="0.7"/><path aria-label="t: 16; y: −1.21790509284" role="graphics-symbol" aria-roledescription="point" transform="translate(112,104.3581018567118)" d="M2.739,0A2.739,2.739,0,1,1,-2.739,0A2.739,2.739,0,1,1,2.739,0" stroke="#f58518" stroke-width="2" opacity="0.7"/><path aria-label="t: 17; y: 1.84543445355" role="graphics-symbol" aria-roledescription="point" transform="translate(119.00000000000001,43.091310929002915)" d="M2.739,0A2.739,2.739,0,1,1,-2.739,0A2.739,2.739,0,1,1,2.739,0" stroke="#f58518" stroke-width="2" opacity="0.7"/><path aria-label="t: 18; y: 1.06726862417" role="graphics-symbol" aria-roledescription="point" transform="translate(126,58.65462751667199)" d="M2.739,0A2.739,2.739,0,1,1,-2.739,0A2.739,2.739,0,1,1,2.739,0" stroke="#f58518" stroke-width="2" opacity="0.7"/><path aria-label="t: 19; y: −0.714929896194" role="graphics-symbol" aria-roledescription="point" transform="translate(133,94.29859792387963)" d="M2.739,0A2.739,2.739,0,1,1,-2.739,0A2.739,2.739,0,1,1,2.739,0" stroke="#f58518" stroke-width="2" opacity="0.7"/><path aria-label="t: 20; y: −2.31028594994" role="graphics-symbol" aria-roledescription="point" transform="translate(140,126.2057189987954)" d="M2.739,0A2.739,2.739,0,1,1,-2.739,0A2.739,2.739,0,1,1,2.739,0" stroke="#f58518" stroke-width="2" opacity="0.7"/><path aria-label="t: 21; y: −1.35007322736" role="graphics-symbol" aria-roledescription="point" transform="translate(147,107.00146454727249)" d="M2.739,0A2.739,2.739,0,1,1,-2.739,0A2.739,2.739,0,1,1,2.739,0" stroke="#f58518" stroke-width="2" opacity="0.7"/><path aria-label="t: 22; y: −1.22573011868" role="graphics-symbol" aria-roledescription="point" transform="translate(154,104.5146023735567)" d="M2.739,0A2.739,2.739,0,1,1,-2.739,0A2.739,2.739,0,1,1,2.739,0" stroke="#f58518" stroke-width="2" opacity="0.7"/><path aria-label="t: 23; y: −0.77681704235" role="graphics-symbol" aria-roledescription="point" transform="translate(161,95.53634084699432)" d="M2.739,0A2.739,2.739,0,1,1,-2.739,0A2.739,2.739,0,1,1,2.739,0" stroke="#f58518" stroke-width="2" opacity="0.7"/><path aria-label="t: 24; y: −3.40644295061" role="graphics-symbol" aria-roledescription="point" transform="translate(168,148.12885901219738)" d="M2.739,0A2.739,2.739,0,1,1,-2.739,0A2.739,2.739,0,1,1,2.739,0" stroke="#f58518" stroke-width="2" opacity="0.7"/><path aria-label="t: 25; y: −1.33506185061" role="graphics-symbol" aria-roledescription="point" transform="translate(175,106.70123701216494)" d="M2.739,0A2.739,2.739,0,1,1,-2.739,0A2.739,2.739,0,1,1,2.739,0" stroke="#f58518" stroke-width="2" opacity="0.7"/><path aria-label="t: 26; y: −1.14774755714" role="graphics-symbol" aria-roledescription="point" transform="translate(182,102.95495114282025)" d="M2.739,0A2.739,2.739,0,1,1,-2.739,0A2.739,2.739,0,1,1,2.739,0" stroke="#f58518" stroke-width="2" opacity="0.7"/><path aria-label="t: 27; y: −1.52107726216" role="graphics-symbol" aria-roledescription="point" transform="translate(189,110.4215452431036)" d="M2.739,0A2.739,2.739,0,1,1,-2.739,0A2.739,2.739,0,1,1,2.739,0" stroke="#f58518" stroke-width="2" opacity="0.7"/><path aria-label="t: 28; y: −2.51962053751" role="graphics-symbol" aria-roledescription="point" transform="translate(196.00000000000003,130.39241075015556)" d="M2.739,0A2.739,2.739,0,1,1,-2.739,0A2.739,2.739,0,1,1,2.739,0" stroke="#f58518" stroke-width="2" opacity="0.7"/><path aria-label="t: 29; y: −2.5963168316" role="graphics-symbol" aria-roledescription="point" transform="translate(203,131.92633663204018)" d="M2.739,0A2.739,2.739,0,1,1,-2.739,0A2.739,2.739,0,1,1,2.739,0" stroke="#f58518" stroke-width="2" opacity="0.7"/><path aria-label="t: 30; y: −0.0141886269099" role="graphics-symbol" aria-roledescription="point" transform="translate(210,80.28377253819721)" d="M2.739,0A2.739,2.739,0,1,1,-2.739,0A2.739,2.739,0,1,1,2.739,0" stroke="#f58518" stroke-width="2" opacity="0.7"/><path aria-label="t: 31; y: −2.28689258" role="graphics-symbol" aria-roledescription="point" transform="translate(217,125.73785159992919)" d="M2.739,0A2.739,2.739,0,1,1,-2.739,0A2.739,2.739,0,1,1,2.739,0" stroke="#f58518" stroke-width="2" opacity="0.7"/><path aria-label="t: 32; y: −2.98307034175" role="graphics-symbol" aria-roledescription="point" transform="translate(224,139.66140683495632)" d="M2.739,0A2.739,2.739,0,1,1,-2.739,0A2.739,2.739,0,1,1,2.739,0" stroke="#f58518" stroke-width="2" opacity="0.7"/><path aria-label="t: 33; y: −2.04501872385" role="graphics-symbol" aria-roledescription="point" transform="translate(231,120.90037447697073)" d="M2.739,0A2.739,2.739,0,1,1,-2.739,0A2.739,2.739,0,1,1,2.739,0" stroke="#f58518" stroke-width="2" opacity="0.7"/><path aria-label="t: 34; y: −0.916638028824" role="graphics-symbol" aria-roledescription="point" transform="translate(238.00000000000003,98.33276057647669)" d="M2.739,0A2.739,2.739,0,1,1,-2.739,0A2.739,2.739,0,1,1,2.739,0" stroke="#f58518" stroke-width="2" opacity="0.7"/><path aria-label="t: 35; y: −1.51982630755" role="graphics-symbol" aria-roledescription="point" transform="translate(244.99999999999997,110.39652615095821)" d="M2.739,0A2.739,2.739,0,1,1,-2.739,0A2.739,2.739,0,1,1,2.739,0" stroke="#f58518" stroke-width="2" opacity="0.7"/><path aria-label="t: 36; y: 0.210097403159" role="graphics-symbol" aria-roledescription="point" transform="translate(252,75.79805193682625)" d="M2.739,0A2.739,2.739,0,1,1,-2.739,0A2.739,2.739,0,1,1,2.739,0" stroke="#f58518" stroke-width="2" opacity="0.7"/><path aria-label="t: 37; y: −1.84573475504" role="graphics-symbol" aria-roledescription="point" transform="translate(259,116.91469510075476)" d="M2.739,0A2.739,2.739,0,1,1,-2.739,0A2.739,2.739,0,1,1,2.739,0" stroke="#f58518" stroke-width="2" opacity="0.7"/><path aria-label="t: 38; y: −0.631738943451" role="graphics-symbol" aria-roledescription="point" transform="translate(266,92.63477886902307)" d="M2.739,0A2.739,2.739,0,1,1,-2.739,0A2.739,2.739,0,1,1,2.739,0" stroke="#f58518" stroke-width="2" opacity="0.7"/><path aria-label="t: 39; y: 1.67426641453" role="graphics-symbol" aria-roledescription="point" transform="translate(273,46.514671709445274)" d="M2.739,0A2.739,2.739,0,1,1,-2.739,0A2.739,2.739,0,1,1,2.739,0" stroke="#f58518" stroke-width="2" opacity="0.7"/><path aria-label="t: 40; y: −0.27521533065" role="graphics-symbol" aria-roledescription="point" transform="translate(280,85.5043066129934)" d="M2.739,0A2.739,2.739,0,1,1,-2.739,0A2.739,2.739,0,1,1,2.739,0" stroke="#f58518" stroke-width="2" opacity="0.7"/><path aria-label="t: 41; y: 0.648899848815" role="graphics-symbol" aria-roledescription="point" transform="translate(287,67.02200302369945)" d="M2.739,0A2.739,2.739,0,1,1,-2.739,0A2.739,2.739,0,1,1,2.739,0" stroke="#f58518" stroke-width="2" opacity="0.7"/><path aria-label="t: 42; y: 3.20168507679" role="graphics-symbol" aria-roledescription="point" transform="translate(294,15.966298464125428)" d="M2.739,0A2.739,2.739,0,1,1,-2.739,0A2.739,2.739,0,1,1,2.739,0" stroke="#f58518" stroke-width="2" opacity="0.7"/><path aria-label="t: 43; y: 2.00325306094" role="graphics-symbol" aria-roledescription="point" transform="translate(301,39.93493878125851)" d="M2.739,0A2.739,2.739,0,1,1,-2.739,0A2.739,2.739,0,1,1,2.739,0" stroke="#f58518" stroke-width="2" opacity="0.7"/><path aria-label="t: 44; y: 2.65640350245" role="graphics-symbol" aria-roledescription="point" transform="translate(308,26.871929950912655)" d="M2.739,0A2.739,2.739,0,1,1,-2.739,0A2.739,2.739,0,1,1,2.739,0" stroke="#f58518" stroke-width="2" opacity="0.7"/><path aria-label="t: 45; y: 2.7763241347" role="graphics-symbol" aria-roledescription="point" transform="translate(315,24.473517306010308)" d="M2.739,0A2.739,2.739,0,1,1,-2.739,0A2.739,2.739,0,1,1,2.739,0" stroke="#f58518" stroke-width="2" opacity="0.7"/><path aria-label="t: 46; y: 2.82353155797" role="graphics-symbol" aria-roledescription="point" transform="translate(322,23.52936884053356)" d="M2.739,0A2.739,2.739,0,1,1,-2.739,0A2.739,2.739,0,1,1,2.739,0" stroke="#f58518" stroke-width="2" opacity="0.7"/><path aria-label="t: 47; y: 3.77179731137" role="graphics-symbol" aria-roledescription="point" transform="translate(329,4.564053772554066)" d="M2.739,0A2.739,2.739,0,1,1,-2.739,0A2.739,2.739,0,1,1,2.739,0" stroke="#f58518" stroke-width="2" opacity="0.7"/><path aria-label="t: 48; y: 1.95898253998" role="graphics-symbol" aria-roledescription="point" transform="translate(336,40.82034920038491)" d="M2.739,0A2.739,2.739,0,1,1,-2.739,0A2.739,2.739,0,1,1,2.739,0" stroke="#f58518" stroke-width="2" opacity="0.7"/><path aria-label="t: 49; y: 1.18139659996" role="graphics-symbol" aria-roledescription="point" transform="translate(343,56.37206800089785)" d="M2.739,0A2.739,2.739,0,1,1,-2.739,0A2.739,2.739,0,1,1,2.739,0" stroke="#f58518" stroke-width="2" opacity="0.7"/><path aria-label="t: 50; y: 3.35499747454" role="graphics-symbol" aria-roledescription="point" transform="translate(350,12.900050509106787)" d="M2.739,0A2.739,2.739,0,1,1,-2.739,0A2.739,2.739,0,1,1,2.739,0" stroke="#f58518" stroke-width="2" opacity="0.7"/><path aria-label="t: 51; y: 1.24468289379" role="graphics-symbol" aria-roledescription="point" transform="translate(357,55.10634212417702)" d="M2.739,0A2.739,2.739,0,1,1,-2.739,0A2.739,2.739,0,1,1,2.739,0" stroke="#f58518" stroke-width="2" opacity="0.7"/><path aria-label="t: 52; y: −0.444218592602" role="graphics-symbol" aria-roledescription="point" transform="translate(364,88.88437185203841)" d="M2.739,0A2.739,2.739,0,1,1,-2.739,0A2.739,2.739,0,1,1,2.739,0" stroke="#f58518" stroke-width="2" opacity="0.7"/><path aria-label="t: 53; y: 0.92922154156" role="graphics-symbol" aria-roledescription="point" transform="translate(371,61.415569168795095)" d="M2.739,0A2.739,2.739,0,1,1,-2.739,0A2.739,2.739,0,1,1,2.739,0" stroke="#f58518" stroke-width="2" opacity="0.7"/><path aria-label="t: 54; y: −0.405874542662" role="graphics-symbol" aria-roledescription="point" transform="translate(378,88.11749085324956)" d="M2.739,0A2.739,2.739,0,1,1,-2.739,0A2.739,2.739,0,1,1,2.739,0" stroke="#f58518" stroke-width="2" opacity="0.7"/><path aria-label="t: 55; y: 0.256225727011" role="graphics-symbol" aria-roledescription="point" transform="translate(385.00000000000006,74.87548545977944)" d="M2.739,0A2.739,2.739,0,1,1,-2.739,0A2.739,2.739,0,1,1,2.739,0" stroke="#f58518" stroke-width="2" opacity="0.7"/><path aria-label="t: 56; y: 0.27098691881" role="graphics-symbol" aria-roledescription="point" transform="translate(392.00000000000006,74.58026162380335)" d="M2.739,0A2.739,2.739,0,1,1,-2.739,0A2.739,2.739,0,1,1,2.739,0" stroke="#f58518" stroke-width="2" opacity="0.7"/><path aria-label="t: 57; y: 1.59347016116" role="graphics-symbol" aria-roledescription="point" transform="translate(398.99999999999994,48.13059677676894)" d="M2.739,0A2.739,2.739,0,1,1,-2.739,0A2.739,2.739,0,1,1,2.739,0" stroke="#f58518" stroke-width="2" opacity="0.7"/><path aria-label="t: 58; y: −1.2940958248" role="graphics-symbol" aria-roledescription="point" transform="translate(406,105.88191649594523)" d="M2.739,0A2.739,2.739,0,1,1,-2.739,0A2.739,2.739,0,1,1,2.739,0" stroke="#f58518" stroke-width="2" opacity="0.7"/><path aria-label="t: 59; y: −0.231462597752" role="graphics-symbol" aria-roledescription="point" transform="translate(413,84.62925195503152)" d="M2.739,0A2.739,2.739,0,1,1,-2.739,0A2.739,2.739,0,1,1,2.739,0" stroke="#f58518" stroke-width="2" opacity="0.7"/><path aria-label="t: 60; y: −0.479026858358" role="graphics-symbol" aria-roledescription="point" transform="translate(420,89.58053716716377)" d="M2.739,0A2.739,2.739,0,1,1,-2.739,0A2.739,2.739,0,1,1,2.739,0" stroke="#f58518" stroke-width="2" opacity="0.7"/><path aria-label="t: 61; y: −2.86595464636" role="graphics-symbol" aria-roledescription="point" transform="translate(427,137.31909292714028)" d="M2.739,0A2.739,2.739,0,1,1,-2.739,0A2.739,2.739,0,1,1,2.739,0" stroke="#f58518" stroke-width="2" opacity="0.7"/><path aria-label="t: 62; y: −1.50455311051" role="graphics-symbol" aria-roledescription="point" transform="translate(434,110.09106221029039)" d="M2.739,0A2.739,2.739,0,1,1,-2.739,0A2.739,2.739,0,1,1,2.739,0" stroke="#f58518" stroke-width="2" opacity="0.7"/><path aria-label="t: 63; y: −2.24364107015" role="graphics-symbol" aria-roledescription="point" transform="translate(441,124.87282140290992)" d="M2.739,0A2.739,2.739,0,1,1,-2.739,0A2.739,2.739,0,1,1,2.739,0" stroke="#f58518" stroke-width="2" opacity="0.7"/><path aria-label="t: 64; y: −5.24009405348" role="graphics-symbol" aria-roledescription="point" transform="translate(448,184.8018810695128)" d="M2.739,0A2.739,2.739,0,1,1,-2.739,0A2.739,2.739,0,1,1,2.739,0" stroke="#f58518" stroke-width="2" opacity="0.7"/><path aria-label="t: 65; y: −3.85754970016" role="graphics-symbol" aria-roledescription="point" transform="translate(455,157.15099400310893)" d="M2.739,0A2.739,2.739,0,1,1,-2.739,0A2.739,2.739,0,1,1,2.739,0" stroke="#f58518" stroke-width="2" opacity="0.7"/><path aria-label="t: 66; y: −2.80287789455" role="graphics-symbol" aria-roledescription="point" transform="translate(462,136.0575578910689)" d="M2.739,0A2.739,2.739,0,1,1,-2.739,0A2.739,2.739,0,1,1,2.739,0" stroke="#f58518" stroke-width="2" opacity="0.7"/><path aria-label="t: 67; y: −1.43587367176" role="graphics-symbol" aria-roledescription="point" transform="translate(469,108.71747343525944)" d="M2.739,0A2.739,2.739,0,1,1,-2.739,0A2.739,2.739,0,1,1,2.739,0" stroke="#f58518" stroke-width="2" opacity="0.7"/><path aria-label="t: 68; y: −3.00309900704" role="graphics-symbol" aria-roledescription="point" transform="translate(476.00000000000006,140.06198014075954)" d="M2.739,0A2.739,2.739,0,1,1,-2.739,0A2.739,2.739,0,1,1,2.739,0" stroke="#f58518" stroke-width="2" opacity="0.7"/><path aria-label="t: 69; y: −2.37395373739" role="graphics-symbol" aria-roledescription="point" transform="translate(482.99999999999994,127.47907474770524)" d="M2.739,0A2.739,2.739,0,1,1,-2.739,0A2.739,2.739,0,1,1,2.739,0" stroke="#f58518" stroke-width="2" opacity="0.7"/><path aria-label="t: 70; y: 0.195901592082" role="graphics-symbol" aria-roledescription="point" transform="translate(489.99999999999994,76.08196815836207)" d="M2.739,0A2.739,2.739,0,1,1,-2.739,0A2.739,2.739,0,1,1,2.739,0" stroke="#f58518" stroke-width="2" opacity="0.7"/><path aria-label="t: 71; y: −1.81144200578" role="graphics-symbol" aria-roledescription="point" transform="translate(497,116.22884011563741)" d="M2.739,0A2.739,2.739,0,1,1,-2.739,0A2.739,2.739,0,1,1,2.739,0" stroke="#f58518" stroke-width="2" opacity="0.7"/><path aria-label="t: 72; y: 0.367828168025" role="graphics-symbol" aria-roledescription="point" transform="translate(504,72.6434366394944)" d="M2.739,0A2.739,2.739,0,1,1,-2.739,0A2.739,2.739,0,1,1,2.739,0" stroke="#f58518" stroke-width="2" opacity="0.7"/><path aria-label="t: 73; y: −2.20712754206" role="graphics-symbol" aria-roledescription="point" transform="translate(511,124.14255084128443)" d="M2.739,0A2.739,2.739,0,1,1,-2.739,0A2.739,2.739,0,1,1,2.739,0" stroke="#f58518" stroke-width="2" opacity="0.7"/><path aria-label="t: 74; y: −1.4188971598" role="graphics-symbol" aria-roledescription="point" transform="translate(518,108.37794319594649)" d="M2.739,0A2.739,2.739,0,1,1,-2.739,0A2.739,2.739,0,1,1,2.739,0" stroke="#f58518" stroke-width="2" opacity="0.7"/><path aria-label="t: 75; y: −0.142013007437" role="graphics-symbol" aria-roledescription="point" transform="translate(525,82.8402601487382)" d="M2.739,0A2.739,2.739,0,1,1,-2.739,0A2.739,2.739,0,1,1,2.739,0" stroke="#f58518" stroke-width="2" opacity="0.7"/><path aria-label="t: 76; y: −0.577712492605" role="graphics-symbol" aria-roledescription="point" transform="translate(532,91.55424985210946)" d="M2.739,0A2.739,2.739,0,1,1,-2.739,0A2.739,2.739,0,1,1,2.739,0" stroke="#f58518" stroke-width="2" opacity="0.7"/><path aria-label="t: 77; y: −0.871596684156" role="graphics-symbol" aria-roledescription="point" transform="translate(539,97.4319336831274)" d="M2.739,0A2.739,2.739,0,1,1,-2.739,0A2.739,2.739,0,1,1,2.739,0" stroke="#f58518" stroke-width="2" opacity="0.7"/><path aria-label="t: 78; y: 0.662327374635" role="graphics-symbol" aria-roledescription="point" transform="translate(546,66.75345250730405)" d="M2.739,0A2.739,2.739,0,1,1,-2.739,0A2.739,2.739,0,1,1,2.739,0" stroke="#f58518" stroke-width="2" opacity="0.7"/><path aria-label="t: 79; y: 0.220094051054" role="graphics-symbol" aria-roledescription="point" transform="translate(553,75.59811897892953)" d="M2.739,0A2.739,2.739,0,1,1,-2.739,0A2.739,2.739,0,1,1,2.739,0" stroke="#f58518" stroke-width="2" opacity="0.7"/><path aria-label="t: 80; y: 1.77971942765" role="graphics-symbol" aria-roledescription="point" transform="translate(560,44.40561144697131)" d="M2.739,0A2.739,2.739,0,1,1,-2.739,0A2.739,2.739,0,1,1,2.739,0" stroke="#f58518" stroke-width="2" opacity="0.7"/><path aria-label="t: 81; y: 1.58725143444" role="graphics-symbol" aria-roledescription="point" transform="translate(567,48.254971311213765)" d="M2.739,0A2.739,2.739,0,1,1,-2.739,0A2.739,2.739,0,1,1,2.739,0" stroke="#f58518" stroke-width="2" opacity="0.7"/><path aria-label="t: 82; y: 1.92324537009" role="graphics-symbol" aria-roledescription="point" transform="translate(574,41.535092598137766)" d="M2.739,0A2.739,2.739,0,1,1,-2.739,0A2.739,2.739,0,1,1,2.739,0" stroke="#f58518" stroke-width="2" opacity="0.7"/><path aria-label="t: 83; y: 3.07209262694" role="graphics-symbol" aria-roledescription="point" transform="translate(581,18.55814746117779)" d="M2.739,0A2.739,2.739,0,1,1,-2.739,0A2.739,2.739,0,1,1,2.739,0" stroke="#f58518" stroke-width="2" opacity="0.7"/><path aria-label="t: 84; y: 2.52040049673" role="graphics-symbol" aria-roledescription="point" transform="translate(588,29.591990065400186)" d="M2.739,0A2.739,2.739,0,1,1,-2.739,0A2.739,2.739,0,1,1,2.739,0" stroke="#f58518" stroke-width="2" opacity="0.7"/><path aria-label="t: 85; y: 3.58274453419" role="graphics-symbol" aria-roledescription="point" transform="translate(595,8.345109316169786)" d="M2.739,0A2.739,2.739,0,1,1,-2.739,0A2.739,2.739,0,1,1,2.739,0" stroke="#f58518" stroke-width="2" opacity="0.7"/><path aria-label="t: 86; y: 2.56919646688" role="graphics-symbol" aria-roledescription="point" transform="translate(602,28.61607066249292)" d="M2.739,0A2.739,2.739,0,1,1,-2.739,0A2.739,2.739,0,1,1,2.739,0" stroke="#f58518" stroke-width="2" opacity="0.7"/><path aria-label="t: 87; y: 1.853815555" role="graphics-symbol" aria-roledescription="point" transform="translate(609,42.923688900030356)" d="M2.739,0A2.739,2.739,0,1,1,-2.739,0A2.739,2.739,0,1,1,2.739,0" stroke="#f58518" stroke-width="2" opacity="0.7"/><path aria-label="t: 88; y: 2.67809632495" role="graphics-symbol" aria-roledescription="point" transform="translate(616,26.43807350103615)" d="M2.739,0A2.739,2.739,0,1,1,-2.739,0A2.739,2.739,0,1,1,2.739,0" stroke="#f58518" stroke-width="2" opacity="0.7"/><path aria-label="t: 89; y: 2.40914694764" role="graphics-symbol" aria-roledescription="point" transform="translate(623,31.817061047132846)" d="M2.739,0A2.739,2.739,0,1,1,-2.739,0A2.739,2.739,0,1,1,2.739,0" stroke="#f58518" stroke-width="2" opacity="0.7"/><path aria-label="t: 90; y: 0.252759902473" role="graphics-symbol" aria-roledescription="point" transform="translate(630,74.94480195053566)" d="M2.739,0A2.739,2.739,0,1,1,-2.739,0A2.739,2.739,0,1,1,2.739,0" stroke="#f58518" stroke-width="2" opacity="0.7"/><path aria-label="t: 91; y: 2.1094675824" role="graphics-symbol" aria-roledescription="point" transform="translate(637,37.81064835208405)" d="M2.739,0A2.739,2.739,0,1,1,-2.739,0A2.739,2.739,0,1,1,2.739,0" stroke="#f58518" stroke-width="2" opacity="0.7"/><path aria-label="t: 92; y: 2.28307608636" role="graphics-symbol" aria-roledescription="point" transform="translate(644,34.3384782727854)" d="M2.739,0A2.739,2.739,0,1,1,-2.739,0A2.739,2.739,0,1,1,2.739,0" stroke="#f58518" stroke-width="2" opacity="0.7"/><path aria-label="t: 93; y: 1.96028621166" role="graphics-symbol" aria-roledescription="point" transform="translate(651,40.79427576681909)" d="M2.739,0A2.739,2.739,0,1,1,-2.739,0A2.739,2.739,0,1,1,2.739,0" stroke="#f58518" stroke-width="2" opacity="0.7"/><path aria-label="t: 94; y: 2.86265339774" role="graphics-symbol" aria-roledescription="point" transform="translate(658,22.746932045171775)" d="M2.739,0A2.739,2.739,0,1,1,-2.739,0A2.739,2.739,0,1,1,2.739,0" stroke="#f58518" stroke-width="2" opacity="0.7"/><path aria-label="t: 95; y: −0.204155490192" role="graphics-symbol" aria-roledescription="point" transform="translate(665,84.08310980383564)" d="M2.739,0A2.739,2.739,0,1,1,-2.739,0A2.739,2.739,0,1,1,2.739,0" stroke="#f58518" stroke-width="2" opacity="0.7"/><path aria-label="t: 96; y: −0.226139430472" role="graphics-symbol" aria-roledescription="point" transform="translate(672,84.5227886094319)" d="M2.739,0A2.739,2.739,0,1,1,-2.739,0A2.739,2.739,0,1,1,2.739,0" stroke="#f58518" stroke-width="2" opacity="0.7"/><path aria-label="t: 97; y: 0.577571724192" role="graphics-symbol" aria-roledescription="point" transform="translate(679,68.44856551615055)" d="M2.739,0A2.739,2.739,0,1,1,-2.739,0A2.739,2.739,0,1,1,2.739,0" stroke="#f58518" stroke-width="2" opacity="0.7"/><path aria-label="t: 98; y: −2.03071400411" role="graphics-symbol" aria-roledescription="point" transform="translate(686,120.61428008225154)" d="M2.739,0A2.739,2.739,0,1,1,-2.739,0A2.739,2.739,0,1,1,2.739,0" stroke="#f58518" stroke-width="2" opacity="0.7"/><path aria-label="t: 99; y: −2.29797774816" role="graphics-symbol" aria-roledescription="point" transform="translate(693,125.95955496326563)" d="M2.739,0A2.739,2.739,0,1,1,-2.739,0A2.739,2.739,0,1,1,2.739,0" stroke="#f58518" stroke-width="2" opacity="0.7"/><path aria-label="t: 100; y: 0.354625997823" role="graphics-symbol" aria-roledescription="point" transform="translate(700,72.90748004353654)" d="M2.739,0A2.739,2.739,0,1,1,-2.739,0A2.739,2.739,0,1,1,2.739,0" stroke="#f58518" stroke-width="2" opacity="0.7"/></g><g class="mark-line role-mark layer_2_marks" role="graphics-object" aria-roledescription="line mark container"><path aria-label="t: 1; b_mean: 2.37202618258" role="graphics-symbol" aria-roledescription="line mark" d="M7,32.559L14,38.257L21,39.886L28,57.638L35,56.728L42,54.706L49,59.95L56,61.913L63,76.121L70,82.127L77,77.14L84,74.807L91,71.434L98,80.641L105,83.902L112,105.582L119,101.532L126,102.363L133,113.291L140,123.97L147,127.521L154,127.606L161,125.855L168,124.262L175,121.159L182,118.372L189,115.618L196,113.006L203,109.777L210,105.76L217,103.501L224,101.67L231,99.222L238,95.67L245,91.851L252,86.59L259,87.062L266,84.802L273,76.457L280,72.203L287,63.399L294,51.433L301,42.07L308,34.14L315,31.135L322,31.977L329,34.05L336,36.582L343,39.261L350,41.859L357,45.078L364,48.695L371,52.017L378,56.462L385,62.084L392,67.394L399,72.013L406,84.137L413,94.976L420,104.003L427,120.755L434,126.645L441,128.101L448,127.58L455,125.673L462,123.094L469,120.148L476,117.861L483,114.7L490,110.399L497,107.773L504,102.499L511,100.173L518,97L525,92.277L532,87.232L539,82.561L546,75.28L553,66.953L560,55.634L567,45.653L574,36.523L581,31.694L588,31.624L595,33.427L602,35.865L609,38.499L616,41.133L623,44.103L630,47.718L637,50.806L644,54.59L651,58.955L658,63.426L665,70.806L672,79.444L679,87.558L686,104.096L693,118.592L700,123.94" stroke="#e45756" stroke-width="2"/></g><g class="mark-group role-legend" role="graphics-symbol" aria-roledescription="legend" aria-label="Symbol legend for stroke color with 3 values: True State, Observation, Mean Belief"><g transform="translate(718,0)"><path class="background" aria-hidden="true" d="M0,0h77v45h-77Z" pointer-events="none"/><g><g class="mark-group role-legend-entry"><g transform="translate(0,0)"><path class="background" aria-hidden="true" d="M0,0h0v0h0Z" pointer-events="none"/><g><g class="mark-group role-scope" role="graphics-object" aria-roledescription="group mark container"><g transform="translate(0,0)"><path class="background" aria-hidden="true" d="M0,0h76.8935546875v12.5h-76.8935546875Z" pointer-events="none" opacity="1"/><g><g class="mark-symbol role-legend-symbol" pointer-events="none"><path transform="translate(6,6)" d="M5,0A5,5,0,1,1,-5,0A5,5,0,1,1,5,0" stroke="#4c78a8" stroke-width="1.5" opacity="0.7"/></g><g class="mark-text role-legend-label" pointer-events="none"><text text-anchor="start" transform="translate(16,9)" font-family="sans-serif" font-size="10px" fill="#000" opacity="1">True State</text></g></g><path class="foreground" aria-hidden="true" d="" pointer-events="none" display="none"/></g><g transform="translate(0,16)"><path class="background" aria-hidden="true" d="M0,0h76.8935546875v12.5h-76.8935546875Z" pointer-events="none" opacity="1"/><g><g class="mark-symbol role-legend-symbol" pointer-events="none"><path transform="translate(6,6)" d="M5,0A5,5,0,1,1,-5,0A5,5,0,1,1,5,0" stroke="#f58518" stroke-width="1.5" opacity="0.7"/></g><g class="mark-text role-legend-label" pointer-events="none"><text text-anchor="start" transform="translate(16,9)" font-family="sans-serif" font-size="10px" fill="#000" opacity="1">Observation</text></g></g><path class="foreground" aria-hidden="true" d="" pointer-events="none" display="none"/></g><g transform="translate(0,32)"><path class="background" aria-hidden="true" d="M0,0h76.8935546875v12.5h-76.8935546875Z" pointer-events="none" opacity="1"/><g><g class="mark-symbol role-legend-symbol" pointer-events="none"><path transform="translate(6,6)" d="M5,0A5,5,0,1,1,-5,0A5,5,0,1,1,5,0" stroke="#e45756" stroke-width="1.5" opacity="0.7"/></g><g class="mark-text role-legend-label" pointer-events="none"><text text-anchor="start" transform="translate(16,9)" font-family="sans-serif" font-size="10px" fill="#000" opacity="1">Mean Belief</text></g></g><path class="foreground" aria-hidden="true" d="" pointer-events="none" display="none"/></g></g></g><path class="foreground" aria-hidden="true" d="" pointer-events="none" display="none"/></g></g></g><path class="foreground" aria-hidden="true" d="" pointer-events="none" display="none"/></g></g></g><path class="foreground" aria-hidden="true" d="" display="none"/></g></g></g></svg>